<svg width="60" height="61" viewBox="0 0 60 61" xmlns="http://www.w3.org/2000/svg">
<path d="M47.999 32.6833C47.9037 41.7583 40.5148 49 31.6157 49H24.989C24.4928 49 24.0901 48.5893 24.0901 48.0833V41.85H16.8989C16.4027 41.85 16 41.4393 16 40.9333V33.6H23.1912C23.6874 33.6 24.0901 34.0107 24.0901 34.5167V41.6667H31.8206C36.8347 41.6667 40.9031 37.4573 40.8078 32.3222C40.7143 27.3043 36.592 23.3333 31.6696 23.3333H17.7978C17.3016 23.3333 16.8989 22.9227 16.8989 22.4167V16H31.8206C36.2899 16 40.335 17.8462 43.2618 20.8327C46.2299 23.8577 48.0493 28.0523 47.999 32.6833Z" fill="#FF514B"/>
</svg>
