<svg width="40" height="41" viewBox="0 0 40 41" fill="none" xmlns="http://www.w3.org/2000/svg">
<g clip-path="url(#clip0_545_3128)">
<path d="M39.9978 20.7278C39.8787 32.0028 30.6427 41 19.5191 41H11.236C10.6157 41 10.1124 40.4898 10.1124 39.8611V32.1167H1.1236C0.503371 32.1167 0 31.6064 0 30.9778V21.8667H8.98876C9.60899 21.8667 10.1124 22.3769 10.1124 23.0056V31.8889H19.7753C26.0427 31.8889 31.1281 26.6591 31.009 20.2791C30.8921 14.0448 25.7393 9.11111 19.5865 9.11111H2.24719C1.62697 9.11111 1.1236 8.60089 1.1236 7.97222V0H19.7753C25.3618 0 30.418 2.29372 34.0764 6.00422C37.7865 9.76256 40.0607 14.9741 39.9978 20.7278Z" fill="#FF514B"/>
</g>
<defs>
<clipPath id="clip0_545_3128">
<rect width="40" height="41" fill="white"/>
</clipPath>
</defs>
</svg>
